<svg version="1.1" width="174.720000" height="135.630000" viewBox="0.000000 0.000000 174.720000 50.000000" xmlns="http://www.w3.org/2000/svg" xmlns:xlink="http://www.w3.org/1999/xlink" overflow="hidden"><g id="Layer_2"><g id="Layer_1-2"><g id="logo"><path d=" M 0.000000 102.489998 C -0.005628 101.863800 0.247683 101.263092 0.700000 100.829994 C 1.133091 100.377678 1.733800 100.124367 2.360000 100.129997 C 2.986200 100.124367 3.586909 100.377678 4.020000 100.829994 C 4.939554 101.730179 4.955255 103.205368 4.055069 104.124924 C 4.043504 104.136734 4.031814 104.148430 4.020000 104.159996 C 3.586909 104.612312 2.986200 104.865623 2.360000 104.859993 C 1.733799 104.865623 1.133091 104.612312 0.700000 104.159996 C 0.245130 103.724518 -0.008404 103.119659 -0.000000 102.489998 Z M 0.750000 108.570000 L 4.000000 108.570000 L 4.000000 125.570000 L 0.750000 125.570000 Z" fill="#FFFFFF"/><path d=" M 7.640000 108.580002 L 10.860000 108.580002 L 10.860000 111.190002 L 10.930000 111.190002 C 11.364012 110.254677 12.090590 109.485977 13.000000 109.000000 C 14.064619 108.424782 15.260172 108.135368 16.469999 108.160004 C 17.265409 108.159393 18.055656 108.287727 18.809999 108.540001 C 19.554043 108.774467 20.237020 109.170593 20.809999 109.700005 C 21.396132 110.261848 21.853323 110.944221 22.150000 111.700005 C 22.503122 112.632065 22.672897 113.623558 22.650000 114.620003 L 22.650000 125.529999 L 19.440001 125.529999 L 19.440001 115.529999 C 19.454456 114.849518 19.346054 114.172005 19.120001 113.529999 C 18.936279 113.019211 18.642710 112.554955 18.260000 112.169998 C 17.911480 111.830864 17.491089 111.574524 17.030001 111.419998 C 16.562180 111.265862 16.072557 111.188194 15.580001 111.189995 C 14.945779 111.183647 14.315638 111.292061 13.720001 111.509995 C 13.148252 111.720596 12.634308 112.063225 12.220001 112.509995 C 11.764369 113.022011 11.423421 113.625488 11.220001 114.279991 C 10.965166 115.102005 10.843626 115.959534 10.860002 116.819992 L 10.860000 125.550003 L 7.640000 125.550003 Z" fill="#FFFFFF"/><path d=" M 23.459999 108.580002 L 27.180000 108.580002 L 32.259998 121.580002 L 37.130001 108.580002 L 40.570000 108.580002 L 33.910000 125.580002 L 30.360001 125.580002 Z" fill="#FFFFFF"/><path d=" M 43.880001 118.239998 C 43.873837 118.935913 44.038666 119.622688 44.360001 120.239998 C 44.673279 120.840668 45.105354 121.371407 45.630001 121.799995 C 46.172298 122.239021 46.788639 122.577667 47.450001 122.799995 C 48.141479 123.039429 48.868240 123.161125 49.600002 123.159996 C 50.519085 123.181419 51.424988 122.938461 52.210003 122.459999 C 52.972233 121.959427 53.647758 121.337944 54.210003 120.620003 L 56.639999 122.480003 C 54.866985 124.793839 52.083115 126.105644 49.169998 126.000000 C 47.926800 126.017204 46.692677 125.786018 45.539997 125.320000 C 44.496250 124.897713 43.555119 124.256653 42.779999 123.440002 C 42.015865 122.623070 41.424099 121.660599 41.039997 120.610001 C 40.627029 119.482796 40.420399 118.290436 40.429996 117.090004 C 40.417797 115.881569 40.642002 114.682404 41.089996 113.560005 C 41.510624 112.506882 42.132175 111.545685 42.919998 110.730003 C 43.706417 109.922127 44.648823 109.282516 45.689999 108.850006 C 46.802116 108.388786 47.996098 108.157471 49.199997 108.170006 C 50.514355 108.131134 51.819450 108.401749 53.009998 108.960007 C 54.005684 109.443657 54.883011 110.140060 55.579998 111.000008 C 56.236561 111.847122 56.719147 112.815697 56.999996 113.850006 C 57.298176 114.904198 57.449600 115.994461 57.449997 117.090004 L 57.450001 118.239998 Z M 54.000000 115.660004 C 53.987461 114.980072 53.872849 114.305885 53.660000 113.660004 C 53.469414 113.081947 53.159370 112.550438 52.750000 112.100006 C 52.322487 111.659615 51.803650 111.318275 51.230000 111.100006 C 50.551735 110.835083 49.828033 110.705971 49.099998 110.720009 C 48.352642 110.711388 47.612301 110.864922 46.930000 111.170006 C 46.307125 111.446159 45.743465 111.840042 45.270000 112.330009 C 44.824619 112.792511 44.465622 113.331001 44.209999 113.920006 C 43.965775 114.467949 43.836449 115.060135 43.829998 115.660004 Z" fill="#FFFFFF"/><path d=" M 60.060001 108.580002 L 63.279999 108.580002 L 63.279999 111.190002 L 63.349998 111.190002 C 63.792534 110.244774 64.534065 109.471611 65.459999 108.990005 C 66.524620 108.414787 67.720169 108.125374 68.930000 108.150009 C 69.725410 108.149399 70.515656 108.277733 71.269997 108.530006 C 72.014038 108.764473 72.697014 109.160599 73.269997 109.690010 C 73.856125 110.251854 74.313324 110.934227 74.609993 111.690010 C 74.963112 112.622070 75.132889 113.613564 75.109993 114.610008 L 75.110001 125.519997 L 71.860001 125.519997 L 71.860001 115.519997 C 71.874458 114.839516 71.766052 114.162003 71.540001 113.519997 C 71.356277 113.009209 71.062706 112.544952 70.680000 112.159996 C 70.331482 111.820862 69.911087 111.564522 69.449997 111.409996 C 68.982178 111.255859 68.492554 111.178192 68.000000 111.179993 C 67.365776 111.173645 66.735634 111.282059 66.139999 111.499992 C 65.568253 111.710594 65.054306 112.053223 64.639999 112.499992 C 64.184364 113.012009 63.843418 113.615486 63.639999 114.269989 C 63.385162 115.092003 63.263626 115.949532 63.279999 116.809990 L 63.279999 125.540001 L 60.060001 125.540001 Z" fill="#FFFFFF"/><path d=" M 87.790001 111.370003 L 83.169998 111.370003 L 83.169998 119.059998 C 83.169998 119.540001 83.169998 120.010002 83.169998 120.470001 C 83.186150 120.899261 83.277534 121.322350 83.439995 121.720001 C 83.588150 122.080482 83.838402 122.389824 84.159996 122.610001 C 84.584908 122.863045 85.076454 122.981575 85.570000 122.949997 C 85.965767 122.947441 86.360573 122.910637 86.750000 122.839996 C 87.139748 122.775093 87.515305 122.643143 87.860001 122.449997 L 87.860001 125.379997 C 87.395531 125.621086 86.890274 125.773682 86.370003 125.829994 C 85.917267 125.914803 85.459732 125.971581 85.000000 125.999992 C 84.012909 126.048546 83.027786 125.870674 82.120003 125.479996 C 81.500633 125.188240 80.979477 124.722672 80.620003 124.139999 C 80.294571 123.577110 80.099777 122.948288 80.050003 122.300003 C 79.989998 121.633331 79.959999 120.946663 79.959999 120.239998 L 79.959999 111.400002 L 76.230003 111.400002 L 76.230003 108.610001 L 80.000000 108.610001 L 80.000000 103.849998 L 83.220001 103.849998 L 83.220001 108.610001 L 87.839996 108.610001 Z" fill="#FFFFFF"/><path d=" M 90.510002 110.650002 C 91.419800 109.813721 92.492073 109.173767 93.660004 108.770004 C 94.809074 108.358871 96.019615 108.145844 97.240005 108.140007 C 98.325294 108.119102 99.406563 108.277908 100.440002 108.610008 C 101.251122 108.871796 101.999893 109.297241 102.639999 109.860008 C 103.194916 110.359406 103.629166 110.978302 103.909996 111.670006 C 104.183434 112.346718 104.322685 113.070145 104.320000 113.800003 L 104.320000 122.459999 C 104.320000 123.053329 104.320000 123.603333 104.320000 124.110001 C 104.320000 124.616669 104.356667 125.093330 104.430000 125.540001 L 101.570000 125.540001 C 101.496666 124.680000 101.459999 123.820000 101.459999 122.959999 L 101.389999 122.959999 C 100.782303 123.962540 99.901131 124.770859 98.849998 125.290001 C 97.780006 125.762497 96.619415 125.994614 95.449997 125.970001 C 94.688408 125.973610 93.930382 125.865799 93.199997 125.650002 C 92.513969 125.442802 91.875252 125.103058 91.320000 124.650002 C 90.783035 124.221703 90.349037 123.678352 90.050003 123.060005 C 89.330452 121.446945 89.430931 119.586197 90.320000 118.060005 C 90.827362 117.301109 91.514389 116.679344 92.320000 116.250008 C 93.258423 115.754486 94.271942 115.416641 95.320000 115.250008 C 96.536751 115.057068 97.768333 114.973404 99.000000 115.000008 L 101.360001 115.000000 L 101.360001 114.279999 C 101.357666 113.838188 101.272881 113.400696 101.110001 112.989998 C 100.939545 112.557350 100.684578 112.163002 100.360001 111.829994 C 100.005493 111.471970 99.579590 111.192581 99.110001 111.009995 C 98.538101 110.796112 97.930389 110.694260 97.320000 110.709991 C 96.771301 110.702095 96.223755 110.762566 95.690002 110.889992 C 95.253754 111.000687 94.828621 111.151321 94.420006 111.339989 C 94.065453 111.514259 93.730270 111.725426 93.420006 111.969986 L 92.519997 112.650002 Z M 99.599998 117.379997 C 98.818275 117.382904 98.037231 117.426292 97.260002 117.509995 C 96.516487 117.580521 95.784386 117.741722 95.080002 117.989998 C 94.474152 118.196304 93.923470 118.538353 93.470001 118.989998 C 93.044884 119.431778 92.817497 120.027313 92.840004 120.639999 C 92.771439 121.471657 93.152878 122.276489 93.840004 122.750000 C 94.648918 123.218208 95.576729 123.440605 96.510002 123.389999 C 97.284241 123.410431 98.053177 123.256638 98.760002 122.940002 C 99.341339 122.671829 99.854225 122.275200 100.260002 121.779999 C 100.636536 121.309921 100.915329 120.769341 101.080002 120.190002 C 101.244110 119.624512 101.328262 119.038826 101.330002 118.450005 L 101.330002 117.379997 Z" fill="#FFFFFF"/><path d=" M 107.739998 108.580002 L 111.000000 108.580002 L 111.000000 111.000000 L 111.000000 111.000000 C 111.643181 110.074738 112.528954 109.344666 113.559998 108.889999 C 114.608086 108.397156 115.751816 108.141098 116.909996 108.139999 C 118.130501 108.122910 119.341721 108.354263 120.469994 108.820000 C 121.501228 109.253113 122.428444 109.900803 123.189995 110.720001 C 123.946976 111.544319 124.534760 112.509232 124.919998 113.559998 C 125.331955 114.677071 125.538612 115.859413 125.529999 117.049995 C 125.539597 118.250435 125.332970 119.442787 124.919998 120.569992 C 124.538872 121.619759 123.950546 122.582169 123.189995 123.399994 C 122.424141 124.209236 121.497688 124.849579 120.469994 125.279991 C 119.341721 125.745728 118.130493 125.977081 116.909996 125.959991 C 115.723228 125.965225 114.550644 125.701996 113.479996 125.189995 C 112.473747 124.739594 111.614388 124.015373 110.999992 123.099998 L 111.000000 123.099998 L 111.000000 135.619995 L 107.779999 135.619995 Z M 116.540001 111.160004 C 115.740669 111.148392 114.947517 111.301575 114.209999 111.610001 C 113.547913 111.890068 112.951790 112.305649 112.459999 112.830002 C 111.967499 113.368172 111.589821 114.001045 111.349998 114.690002 C 110.825020 116.233246 110.825020 117.906761 111.349998 119.450005 C 111.589561 120.139084 111.967278 120.772003 112.459999 121.310005 C 112.951202 121.835037 113.547478 122.250725 114.209999 122.530006 C 115.702904 123.124992 117.367096 123.124992 118.860001 122.530006 C 119.522377 122.250458 120.118599 121.834808 120.610001 121.310005 C 121.102722 120.772003 121.480438 120.139084 121.720001 119.450005 C 122.244980 117.906761 122.244980 116.233246 121.720001 114.690002 C 121.480179 114.001045 121.102501 113.368172 120.610001 112.830002 C 120.118210 112.305649 119.522087 111.890068 118.860001 111.610001 C 118.126221 111.299767 117.336639 111.143211 116.540001 111.150002 Z" fill="#FFFFFF"/><path d=" M 128.229996 108.580002 L 131.449997 108.580002 L 131.449997 111.190002 L 131.520004 111.190002 C 131.737396 110.735687 132.027939 110.320160 132.380005 109.959999 C 132.736130 109.591537 133.139664 109.272072 133.580002 109.010002 C 134.035156 108.740326 134.522278 108.528679 135.029999 108.380005 C 135.539520 108.228127 136.068314 108.150658 136.600006 108.150002 C 137.084869 108.142670 137.567734 108.213577 138.029999 108.360001 L 137.889999 111.830002 C 137.630005 111.756668 137.366669 111.696663 137.100006 111.650002 C 136.839294 111.603149 136.574905 111.579720 136.310013 111.580002 C 134.974274 111.490463 133.662949 111.969948 132.700012 112.900002 C 131.771103 114.062576 131.323685 115.537262 131.450012 117.020004 L 131.449997 125.540001 L 128.229996 125.540001 Z" fill="#FFFFFF"/><path d=" M 139.250000 102.489998 C 139.235657 101.175636 140.289536 100.098518 141.603897 100.084175 C 142.918259 100.069832 143.995377 101.123711 144.009720 102.438072 C 144.024063 103.752434 142.970184 104.829552 141.655823 104.843895 C 141.017136 104.850861 140.402466 104.600822 139.949997 104.150002 C 139.497681 103.716911 139.244370 103.116203 139.250000 102.489998 Z M 140.000000 108.570000 L 143.220001 108.570000 L 143.220001 125.570000 L 140.000000 125.570000 Z" fill="#FFFFFF"/><path d=" M 146.880005 108.580002 L 150.100006 108.580002 L 150.100006 111.190002 L 150.169998 111.190002 C 150.612534 110.244774 151.354065 109.471611 152.279999 108.990005 C 153.344620 108.414787 154.540176 108.125374 155.750000 108.150009 C 156.545410 108.149399 157.335663 108.277733 158.089996 108.530006 C 158.834167 108.764168 159.517212 109.160332 160.089996 109.690010 C 160.676132 110.251854 161.133316 110.934227 161.429993 111.690010 C 161.784088 112.621803 161.953903 113.613487 161.929993 114.610008 L 161.929993 125.519997 L 158.710007 125.519997 L 158.710007 115.519997 C 158.724457 114.839516 158.616058 114.162003 158.389999 113.519997 C 158.206573 113.009064 157.912964 112.544754 157.529999 112.159996 C 157.178375 111.819855 156.754517 111.563484 156.289993 111.409996 C 155.822220 111.255684 155.332565 111.178017 154.839996 111.179993 C 154.205750 111.173424 153.575577 111.281845 152.979996 111.499992 C 152.408249 111.710594 151.894302 112.053223 151.479996 112.499992 C 151.024368 113.012009 150.683411 113.615486 150.479996 114.269989 C 150.225159 115.092003 150.103622 115.949532 150.119995 116.809990 L 150.119995 125.540001 L 146.899994 125.540001 Z" fill="#FFFFFF"/><path d=" M 174.619995 111.370003 L 170.000000 111.370003 L 170.000000 119.059998 C 170.000000 119.540001 170.000000 120.010002 170.000000 120.470001 C 170.016769 120.899178 170.108124 121.322166 170.270004 121.720001 C 170.418167 122.080482 170.668411 122.389824 170.990005 122.610001 C 171.414673 122.863632 171.906403 122.982208 172.400009 122.949997 C 172.795776 122.947441 173.190582 122.910637 173.580002 122.839996 C 173.969757 122.775093 174.345306 122.643143 174.690002 122.449997 L 174.690002 125.379997 C 174.225616 125.621300 173.720322 125.773911 173.199997 125.829994 C 172.733215 125.903023 172.262268 125.946442 171.789993 125.959991 C 170.802917 126.008194 169.817886 125.830338 168.909988 125.439995 C 168.290619 125.148239 167.769455 124.682671 167.409988 124.099998 C 167.084564 123.537109 166.889755 122.908287 166.839981 122.260002 C 166.779999 121.593330 166.750000 120.906670 166.750000 120.199997 L 166.750000 111.360001 L 163.029999 111.360001 L 163.029999 108.570000 L 166.750000 108.570000 L 166.750000 103.809998 L 170.000000 103.809998 L 170.000000 108.570000 L 174.619995 108.570000 Z" fill="#FFFFFF"/><path d=" M 86.660004 4.210000 L 65.610001 33.680000 L 82.449997 38.939999 L 66.669998 42.099998 L 47.720001 68.410004 L 86.660004 79.989998 L 125.599998 68.410004 L 106.660004 41.049999 L 90.870003 38.939999 L 107.709999 33.680000 L 86.660004 4.210000 Z" fill="#43BFBF"/><path d=" M 86.660004 4.210000 L 65.610001 33.680000 L 82.449997 38.939999 L 66.669998 42.099998 L 47.720001 68.410004 L 86.660004 79.989998 L 86.660004 4.210000 Z" fill="#168F91"/><path d=" M 108.870003 40.619999 L 98.870003 38.439999 L 110.730003 34.880001 L 86.660004 0.000000 L 62.610001 34.880001 L 74.470001 38.439999 L 64.470001 40.619999 L 44.570000 69.459999 L 86.669998 82.089996 L 128.770004 69.459999 Z M 86.660004 7.420000 L 94.949997 19.420000 L 86.660004 21.910000 L 78.370003 19.420000 Z M 75.870003 23.070000 L 86.669998 26.309999 L 97.470001 23.070000 L 104.000000 32.509998 L 86.660004 37.700001 L 69.360001 32.509998 Z M 67.419998 43.730000 L 86.660004 48.540001 L 105.900002 43.730000 L 113.000000 54.000000 L 86.669998 61.900002 L 60.340000 54.000000 Z M 51.310001 67.089996 L 57.820000 57.650002 L 86.660004 66.300003 L 115.500000 57.650002 L 122.000000 67.089996 L 86.660004 77.699997 Z"/></g></g></g></svg>
