<svg xmlns="http://www.w3.org/2000/svg" width="174.72" height="135.63" viewBox="0 0 174.72 135.63"><title>logo</title><g id="Layer_2" data-name="Layer 2"><g id="Layer_1-2" data-name="Layer 1"><g id="logo"><path d="M0,102.49a2.27,2.27,0,0,1,.7-1.66,2.27,2.27,0,0,1,1.66-.7,2.27,2.27,0,0,1,1.66.7,2.33,2.33,0,0,1,0,3.33,2.27,2.27,0,0,1-1.66.7,2.27,2.27,0,0,1-1.66-.7A2.27,2.27,0,0,1,0,102.49Zm.75,6.08H4v17H.75Z" style="fill:#fff"/><path d="M7.64,108.58h3.22v2.61h.07A4.75,4.75,0,0,1,13,109a7,7,0,0,1,3.47-.84,7.36,7.36,0,0,1,2.34.38,5.29,5.29,0,0,1,2,1.16,5.61,5.61,0,0,1,1.34,2,7.74,7.74,0,0,1,.5,2.92v10.91H19.44v-10a5.66,5.66,0,0,0-.32-2,3.71,3.71,0,0,0-.86-1.36,3.24,3.24,0,0,0-1.23-.75,4.58,4.58,0,0,0-1.45-.23,5.26,5.26,0,0,0-1.86.32,3.87,3.87,0,0,0-1.5,1,4.81,4.81,0,0,0-1,1.77,8.06,8.06,0,0,0-.36,2.54v8.73H7.64Z" style="fill:#fff"/><path d="M23.46,108.58h3.72l5.08,13,4.87-13h3.44l-6.66,17H30.36Z" style="fill:#fff"/><path d="M43.88,118.24a4.25,4.25,0,0,0,.48,2,5,5,0,0,0,1.27,1.56,5.86,5.86,0,0,0,1.82,1,6.54,6.54,0,0,0,2.15.36,4.8,4.8,0,0,0,2.61-.7,8.39,8.39,0,0,0,2-1.84l2.43,1.86A9,9,0,0,1,49.17,126a9.34,9.34,0,0,1-3.63-.68,7.88,7.88,0,0,1-2.76-1.88,8.33,8.33,0,0,1-1.74-2.83,10,10,0,0,1-.61-3.52,9.27,9.27,0,0,1,.66-3.53,8.74,8.74,0,0,1,1.83-2.83,8.32,8.32,0,0,1,2.77-1.88,8.92,8.92,0,0,1,3.51-.68,8.39,8.39,0,0,1,3.81.79A7.56,7.56,0,0,1,55.58,111,8.13,8.13,0,0,1,57,113.85a11.92,11.92,0,0,1,.45,3.24v1.15ZM54,115.66a6.79,6.79,0,0,0-.34-2,4.34,4.34,0,0,0-.91-1.56,4.2,4.2,0,0,0-1.52-1,5.56,5.56,0,0,0-2.13-.38,5.17,5.17,0,0,0-2.17.45,5.29,5.29,0,0,0-1.66,1.16,5.38,5.38,0,0,0-1.06,1.59,4.39,4.39,0,0,0-.38,1.74Z" style="fill:#fff"/><path d="M60.06,108.58h3.22v2.61h.07a4.75,4.75,0,0,1,2.11-2.2,7,7,0,0,1,3.47-.84,7.36,7.36,0,0,1,2.34.38,5.29,5.29,0,0,1,2,1.16,5.61,5.61,0,0,1,1.34,2,7.74,7.74,0,0,1,.5,2.92v10.91H71.86v-10a5.66,5.66,0,0,0-.32-2,3.71,3.71,0,0,0-.86-1.36,3.24,3.24,0,0,0-1.23-.75,4.58,4.58,0,0,0-1.45-.23,5.26,5.26,0,0,0-1.86.32,3.87,3.87,0,0,0-1.5,1,4.81,4.81,0,0,0-1,1.77,8.06,8.06,0,0,0-.36,2.54v8.73H60.06Z" style="fill:#fff"/><path d="M87.79,111.37H83.17v7.69q0,.72,0,1.41a3.67,3.67,0,0,0,.27,1.25,2,2,0,0,0,.72.89,2.45,2.45,0,0,0,1.41.34,6.86,6.86,0,0,0,1.18-.11,3.42,3.42,0,0,0,1.11-.39v2.93a4.22,4.22,0,0,1-1.49.45A11.19,11.19,0,0,1,85,126a6.48,6.48,0,0,1-2.88-.52,3.53,3.53,0,0,1-1.5-1.34,4.34,4.34,0,0,1-.57-1.84q-.09-1-.09-2.06v-8.84H76.23v-2.79H80v-4.76h3.22v4.76h4.62Z" style="fill:#fff"/><path d="M90.51,110.65a9,9,0,0,1,3.15-1.88,10.78,10.78,0,0,1,3.58-.63,9.84,9.84,0,0,1,3.2.47,6.23,6.23,0,0,1,2.2,1.25,4.93,4.93,0,0,1,1.27,1.81,5.63,5.63,0,0,1,.41,2.13v8.66q0,.89,0,1.65t.11,1.43h-2.86q-.11-1.29-.11-2.58h-.07a6.16,6.16,0,0,1-2.54,2.33,8,8,0,0,1-3.4.68,7.81,7.81,0,0,1-2.25-.32,5.48,5.48,0,0,1-1.88-1,4.59,4.59,0,0,1-1.27-1.59,5.49,5.49,0,0,1,.27-5,5.54,5.54,0,0,1,2-1.81,9.68,9.68,0,0,1,3-1A20.65,20.65,0,0,1,99,115h2.36v-.72a3.55,3.55,0,0,0-.25-1.29,3.5,3.5,0,0,0-.75-1.16,3.59,3.59,0,0,0-1.25-.82,4.76,4.76,0,0,0-1.79-.3,6.61,6.61,0,0,0-1.63.18,7.33,7.33,0,0,0-1.27.45,5.62,5.62,0,0,0-1,.63l-.9.68Zm9.09,6.73a22.64,22.64,0,0,0-2.34.13,9.16,9.16,0,0,0-2.18.48,4.2,4.2,0,0,0-1.61,1,2.26,2.26,0,0,0-.63,1.65,2.33,2.33,0,0,0,1,2.11,4.81,4.81,0,0,0,2.67.64,5.17,5.17,0,0,0,2.25-.45,4.23,4.23,0,0,0,1.5-1.16,4.52,4.52,0,0,0,.82-1.59,6.31,6.31,0,0,0,.25-1.74v-1.07Z" style="fill:#fff"/><path d="M107.74,108.58H111V111H111a6.13,6.13,0,0,1,2.56-2.11,7.89,7.89,0,0,1,3.35-.75,9,9,0,0,1,3.56.68,7.88,7.88,0,0,1,2.72,1.9,8.55,8.55,0,0,1,1.73,2.84,9.88,9.88,0,0,1,.61,3.49,10,10,0,0,1-.61,3.52,8.33,8.33,0,0,1-1.73,2.83,8,8,0,0,1-2.72,1.88,9,9,0,0,1-3.56.68,7.87,7.87,0,0,1-3.43-.77A5.88,5.88,0,0,1,111,123.1H111v12.52h-3.22Zm8.8,2.58a5.82,5.82,0,0,0-2.33.45,5.15,5.15,0,0,0-1.75,1.22,5.37,5.37,0,0,0-1.11,1.86,7.39,7.39,0,0,0,0,4.76,5.36,5.36,0,0,0,1.11,1.86,5.12,5.12,0,0,0,1.75,1.22,6.28,6.28,0,0,0,4.65,0,5.13,5.13,0,0,0,1.75-1.22,5.36,5.36,0,0,0,1.11-1.86,7.39,7.39,0,0,0,0-4.76,5.37,5.37,0,0,0-1.11-1.86,5.15,5.15,0,0,0-1.75-1.22A5.83,5.83,0,0,0,116.54,111.15Z" style="fill:#fff"/><path d="M128.23,108.58h3.22v2.61h.07a4.6,4.6,0,0,1,.86-1.23,5.78,5.78,0,0,1,1.2-.95,6.34,6.34,0,0,1,1.45-.63,5.52,5.52,0,0,1,1.57-.23,4.51,4.51,0,0,1,1.43.21l-.14,3.47q-.39-.11-.79-.18a4.44,4.44,0,0,0-.79-.07,4.74,4.74,0,0,0-3.61,1.32,5.81,5.81,0,0,0-1.25,4.12v8.52h-3.22Z" style="fill:#fff"/><path d="M139.25,102.49a2.38,2.38,0,1,1,.7,1.66A2.27,2.27,0,0,1,139.25,102.49Zm.75,6.08h3.22v17H140Z" style="fill:#fff"/><path d="M146.88,108.58h3.22v2.61h.07a4.75,4.75,0,0,1,2.11-2.2,7,7,0,0,1,3.47-.84,7.36,7.36,0,0,1,2.34.38,5.28,5.28,0,0,1,2,1.16,5.61,5.61,0,0,1,1.34,2,7.7,7.7,0,0,1,.5,2.92v10.91h-3.22v-10a5.66,5.66,0,0,0-.32-2,3.7,3.7,0,0,0-.86-1.36,3.25,3.25,0,0,0-1.24-.75,4.57,4.57,0,0,0-1.45-.23,5.25,5.25,0,0,0-1.86.32,3.87,3.87,0,0,0-1.5,1,4.81,4.81,0,0,0-1,1.77,8.06,8.06,0,0,0-.36,2.54v8.73h-3.22Z" style="fill:#fff"/><path d="M174.62,111.37H170v7.69q0,.72,0,1.41a3.7,3.7,0,0,0,.27,1.25,2,2,0,0,0,.72.89,2.44,2.44,0,0,0,1.41.34,6.86,6.86,0,0,0,1.18-.11,3.42,3.42,0,0,0,1.11-.39v2.93a4.21,4.21,0,0,1-1.49.45,11.2,11.2,0,0,1-1.41.13,6.49,6.49,0,0,1-2.88-.52,3.53,3.53,0,0,1-1.5-1.34,4.34,4.34,0,0,1-.57-1.84q-.09-1-.09-2.06v-8.84h-3.72v-2.79h3.72v-4.76H170v4.76h4.62Z" style="fill:#fff"/><polygon points="86.66 4.21 65.61 33.68 82.45 38.94 66.67 42.1 47.72 68.41 86.66 79.99 125.6 68.41 106.66 41.05 90.87 38.94 107.71 33.68 86.66 4.21" style="fill:#43bfbf"/><polygon points="86.66 4.21 65.61 33.68 82.45 38.94 66.67 42.1 47.72 68.41 86.66 79.99 86.66 4.21" style="fill:#168f91"/><path d="M108.87,40.62l-10-2.18,11.86-3.56L86.66,0,62.61,34.88l11.86,3.56-10,2.18L44.57,69.46l42.1,12.63,42.1-12.63ZM86.66,7.42l8.29,12-8.29,2.49-8.29-2.49ZM75.87,23.07l10.8,3.24,10.8-3.24L104,32.51,86.66,37.7,69.36,32.51ZM67.42,43.73l19.24,4.81,19.24-4.81L113,54l-26.33,7.9L60.34,54ZM51.31,67.09l6.51-9.44L86.66,66.3l28.84-8.65L122,67.09,86.66,77.7Z"/></g></g></g></svg>